<svg xmlns="http://www.w3.org/2000/svg" width="820" height="620" viewBox="0 0 820 620" role="img" aria-labelledby="title desc">
  <title id="title">Traditional gold necklace</title>
  <desc id="desc">A stylized Indian gold necklace with red gemstones.</desc>
  <defs>
    <radialGradient id="bg" cx="50%" cy="35%" r="70%">
      <stop offset="0" stop-color="#fff5d6"/>
      <stop offset="1" stop-color="#7f1d1d"/>
    </radialGradient>
    <linearGradient id="gold" x1="0" x2="1">
      <stop offset="0" stop-color="#b7791f"/>
      <stop offset=".5" stop-color="#facc15"/>
      <stop offset="1" stop-color="#92400e"/>
    </linearGradient>
  </defs>
  <rect width="820" height="620" rx="42" fill="url(#bg)"/>
  <circle cx="410" cy="300" r="230" fill="#fff7ed" opacity=".55"/>
  <path d="M180 190c50 170 160 260 230 260s180-90 230-260" fill="none" stroke="url(#gold)" stroke-width="34" stroke-linecap="round"/>
  <path d="M220 216c42 120 122 184 190 184s148-64 190-184" fill="none" stroke="#7f1d1d" stroke-width="8" opacity=".55"/>
  <g fill="url(#gold)" stroke="#7c2d12" stroke-width="4">
    <circle cx="230" cy="250" r="28"/>
    <circle cx="294" cy="336" r="32"/>
    <circle cx="410" cy="398" r="46"/>
    <circle cx="526" cy="336" r="32"/>
    <circle cx="590" cy="250" r="28"/>
  </g>
  <g fill="#991b1b">
    <circle cx="230" cy="250" r="10"/>
    <circle cx="294" cy="336" r="12"/>
    <circle cx="410" cy="398" r="16"/>
    <circle cx="526" cy="336" r="12"/>
    <circle cx="590" cy="250" r="10"/>
  </g>
  <text x="410" y="540" text-anchor="middle" font-family="Arial, sans-serif" font-size="36" font-weight="900" fill="#fff7ed">Ambaji Bankers Jewellery</text>
</svg>
